PathFileType	4	(X/Y/Z)	Patient4_TMGait_0pt2_01_left_10.trc.trc
DataRate	CameraRate	NumFrames	NumMarkers	Units	OrigDataRate	OrigDataStartFrame	OrigNumFrames
41.666666666667	41.666666666667	4	33	mm	41.666666666667	106	       141
Frame#	Time	Sacral			L.Shoulder			Chest			R.Shoulder			Neck			R.ASIS			L.ASIS			R.Thigh.Superior			R.Thigh.Lateral			R.Thigh.Inferior			R.Patella			L.Thigh.Superior			L.Thigh.Lateral			L.Thigh.Inferior			L.Patella			L.Shank.Superior			L.Shank.Lateral			L.Shank.Inferior			R.Shank.Superior			R.Shank.Lateral			R.Shank.Inferior			R.Heel			R.Midfoot.Superior			R.Midfoot.Lateral			R.Toe			L.Heel			L.Midfoot.Lateral			L.Midfoot.Superior			L.Toe			L.Elbow			L.Wrist			R.Elbow			R.Wrist			
		X1	Y1	Z1	X2	Y2	Z2	X3	Y3	Z3	X4	Y4	Z4	X5	Y5	Z5	X6	Y6	Z6	X7	Y7	Z7	X8	Y8	Z8	X9	Y9	Z9	X10	Y10	Z10	X11	Y11	Z11	X12	Y12	Z12	X13	Y13	Z13	X14	Y14	Z14	X15	Y15	Z15	X16	Y16	Z16	X17	Y17	Z17	X18	Y18	Z18	X19	Y19	Z19	X20	Y20	Z20	X21	Y21	Z21	X22	Y22	Z22	X23	Y23	Z23	X24	Y24	Z24	X25	Y25	Z25	X26	Y26	Z26	X27	Y27	Z27	X28	Y28	Z28	X29	Y29	Z29	X30	Y30	Z30	X31	Y31	Z31	X32	Y32	Z32	X33	Y33	Z33	

106	24.740000000000	787.635750254885	984.709627275423	537.216262295151	953.404197861893	1408.264445299486	329.313221526239	1051.197398608823	1356.068099963554	498.777990936743	956.696507889252	1432.984671333473	665.481457809901	927.842012037139	1479.899670308424	482.297988288971	1021.076855925992	939.527557406483	659.542641877545	1007.794270092514	942.245039570764	384.500847910625	1071.063099648896	737.209640359945	617.050222100015	995.252732265531	618.166925343434	669.336153639133	1069.432298897360	573.907436223059	583.069458825580	1071.282563178885	479.454701764535	583.162270664113	1085.307320568545	749.367468471460	419.225658436285	1033.156268692810	623.531032634732	341.512831656033	1130.034741497670	556.227112385266	408.246093398454	1135.040422012375	466.306252427095	399.820734281037	1062.080792980724	406.523871736985	385.273361947770	918.409075292260	379.334263010665	329.988006669821	891.830511132216	247.663732697251	374.697764399652	1030.297417445221	390.859552338758	585.301870882111	949.375493306717	292.418035721799	644.548953642590	974.304373745142	198.227173210707	574.687548290050	820.663790327471	42.907387802140	543.541143220330	992.323285867818	96.387014740131	579.123109986583	903.618454207953	37.256139469254	618.249460427121	1111.783569229283	44.460843798188	609.050935100254	695.993066795851	211.383184789893	406.381474768957	744.174076682908	155.443005499195	326.264354377620	849.182807957907	142.073264859933	347.111227659114	905.005014587847	28.435638258529	319.397218180004	958.255675815615	1043.214719240218	243.031078926306	1077.349890712599	818.555466423006	273.156663057382	925.680798976245	1097.938930974385	818.622875792865	1053.490740598479	870.342867137325	836.171189774738	
107	24.764000000000	786.395716978771	983.738509667490	542.007218957492	949.586562020642	1406.312246955108	330.719978716136	1050.183123432453	1354.495435383237	498.718480333633	958.807938064579	1432.012059061138	666.916910360849	926.927268030907	1478.678476878470	483.839423395909	1021.262324015855	938.231956834285	661.320046235889	1004.286526746316	941.209329902842	386.556975245545	1071.071036543179	735.918533485484	618.325416157592	995.799770553835	616.724731921684	670.408156389913	1069.525778694704	572.822219402780	583.397330075189	1071.436464024989	477.957516803046	583.092391404071	1088.515279810527	754.233347690186	422.929097856288	1042.676772204808	626.540292896251	344.554006585527	1141.815225595643	562.855186527790	412.454975607351	1149.816950283156	472.199421902309	403.473552378630	1076.712694275231	411.059683061724	388.633517602691	931.929698609289	384.994538044800	334.482824790913	905.329697881404	252.812272113228	378.145542126133	1029.305257987204	389.544072987045	585.249005447725	947.698179037934	291.752524831653	644.706798780908	971.156290776430	197.513053825034	574.475019906845	815.904938468040	43.017711754714	543.581782703983	987.689573950046	96.279538812954	579.067668218920	898.873513593029	37.265570016123	618.288298268698	1107.088871431253	44.100605243606	609.077976741458	709.713118098586	219.364256678498	412.242030339447	755.329321288832	163.187864733654	330.343402454968	861.035663486032	146.566203568621	349.537270845578	913.150707425624	28.414224657412	318.314096631585	941.952990726176	1040.633454230884	247.975492499992	1036.673850706166	802.806989611506	274.298422628085	944.251623964275	1095.637950736611	821.467163188028	1091.913052746681	881.320035156052	834.642427948640	
108	24.788000000000	785.214616957611	983.350800080788	546.315236751380	946.052908825120	1404.983202806426	332.135901553514	1049.372855303767	1353.309828929652	498.564113930568	961.237599575966	1431.451821071702	668.215373738212	926.282893812468	1477.925871243004	485.324847324840	1021.282771612663	937.132784677228	662.638797178453	1000.768497876926	940.719195999974	388.202566347838	1070.514317131771	734.706631924192	619.232579268184	995.560216270596	615.570305823805	671.240164702362	1068.789615249781	571.851753737628	583.565387711022	1070.613222806985	476.719619060954	582.941949097463	1090.559292606939	759.159677460928	426.088551455582	1050.241792046725	629.987705352973	347.189722189691	1151.073644007907	569.551261240574	416.195541714209	1161.973449865082	478.546984728322	406.765058700221	1089.479425263025	415.878574350146	391.679305715466	944.291052567714	388.909253312770	338.695485684760	919.648395929610	256.155141784351	381.551850088344	1027.564263913574	388.504405791480	585.161473928469	945.440784827661	291.254085993091	644.852752920718	967.694789060514	196.967238806032	574.300968425304	811.132622943460	43.134661359114	543.623758653352	983.055164116840	96.211187808745	579.078979791043	894.119825388814	37.276428410447	618.332120292369	1102.374924717238	43.752887450844	609.105230468162	725.253838025067	221.461366956551	417.955715666351	769.537313626775	166.669891143232	334.326764245059	875.689259007702	149.546467077661	352.045877679289	926.920461882335	29.030042074582	317.297971597752	925.331325717337	1039.663381205701	251.953953257251	996.457583458019	791.967533143337	275.546813569272	963.368410024358	1094.509992170242	823.463758915684	1130.624825747716	896.212190558189	830.995333330645	
109	24.812000000000	784.114824592840	983.594906925587	550.160073966613	942.810837059042	1404.364102536272	333.571488341550	1048.792369558970	1352.571114743993	498.307931222074	964.017400960450	1431.335595380699	669.376013605512	925.926512991815	1477.693645523098	486.772568748308	1021.182685554955	936.289726827367	663.478452960142	997.294728340392	940.837216958892	389.399676736948	1069.382576033797	733.617089233464	619.771257190094	994.466518135044	614.764397272609	671.868666060238	1067.125507670719	571.023951723256	583.615928858231	1068.683539015326	475.785472590012	582.773635488909	1091.393171522857	763.937769804757	428.619279857438	1055.611896681473	633.641126786452	349.364454898691	1157.590767354830	575.961811906724	419.336335030561	1171.226964871641	485.045842487675	409.572004854853	1100.176919893718	420.718813600147	394.289918350651	955.514305913329	390.660872378208	342.353276220092	934.894960688609	257.379652153245	384.694780240735	1024.978645475035	387.780464015606	585.094277721067	942.521526975124	290.936415548594	645.015743228001	963.876674393134	196.608934620617	574.192670030541	806.344988205773	43.252563350783	543.673201831167	978.407942326431	96.177375954808	579.150811680994	889.354170362495	37.288579147345	618.384275018788	1097.634898194724	43.433910826997	609.135141232420	742.846176784511	217.255139499291	423.041696255481	787.177978183455	165.401664824178	337.906902415261	893.442835331140	150.673943035429	354.485793407313	946.813503410425	30.280384917331	316.552731580097	908.479693619488	1040.407276309122	254.950430492665	957.668528355620	785.915468000834	276.937433924536	982.909880770477	1094.669996217041	824.606036509151	1168.820400222578	915.050799877270	825.314426724683	
